<?xml version="1.0" standalone="no"?>
<!DOCTYPE svg PUBLIC "-//W3C//DTD SVG 20010904//EN"
 "http://www.w3.org/TR/2001/REC-SVG-20010904/DTD/svg10.dtd">
<svg version="1.0" xmlns="http://www.w3.org/2000/svg"
 width="485.000000pt" height="485.000000pt" viewBox="0 0 485.000000 485.000000"
 preserveAspectRatio="xMidYMid meet">
<metadata>
Created by potrace 1.14, written by Peter Selinger 2001-2017
</metadata>
<g transform="translate(0.000000,485.000000) scale(0.100000,-0.100000)"
fill="#000000" stroke="none">
<path d="M3520 2991 c-143 -47 -217 -186 -161 -306 26 -56 62 -86 170 -142 52
-26 103 -60 115 -75 l20 -28 -21 -27 c-41 -56 -126 -53 -226 8 -26 16 -51 29
-55 29 -4 0 -26 -33 -49 -73 -49 -83 -51 -79 52 -128 108 -52 243 -61 333 -23
19 7 39 11 45 7 5 -3 7 -2 4 4 -3 5 7 17 23 26 43 26 80 109 80 179 0 33 -6
71 -14 87 -24 46 -92 99 -189 147 -50 25 -100 53 -109 61 -24 21 -23 56 2 78
26 23 118 17 178 -12 l43 -21 35 70 36 71 -23 18 c-55 42 -225 71 -289 50z"/>
<path d="M330 2605 l0 -385 90 0 90 0 0 385 0 385 -90 0 -90 0 0 -385z"/>
<path d="M645 2978 c-4 -15 -65 -701 -65 -735 0 -22 3 -23 89 -23 l88 0 6 73
c4 39 12 139 18 220 l12 149 76 -219 77 -218 56 -3 55 -3 73 211 c43 123 76
206 80 198 4 -7 13 -92 19 -188 17 -244 4 -220 112 -220 l90 0 -5 43 c-4 23
-17 173 -31 332 -14 160 -28 314 -31 343 l-6 53 -96 -3 -95 -3 -69 -180 c-38
-99 -75 -196 -83 -215 l-13 -35 -10 25 c-5 14 -39 102 -75 197 -36 95 -71 181
-77 193 -10 18 -20 20 -101 20 -63 0 -91 -4 -94 -12z"/>
<path d="M1490 2606 l0 -386 90 0 90 0 0 139 0 139 98 4 c114 5 160 24 215 89
78 91 73 244 -11 325 -60 58 -101 68 -299 72 l-183 4 0 -386z m306 218 c22
-11 37 -27 44 -49 24 -74 -23 -125 -117 -125 l-53 0 0 95 0 95 46 0 c25 0 61
-7 80 -16z"/>
<path d="M2110 2606 l0 -386 90 0 89 0 3 143 3 142 30 -41 c17 -23 65 -87 109
-143 l78 -101 115 0 115 0 -38 48 c-21 26 -49 58 -61 72 -11 14 -53 63 -92
110 -66 80 -69 85 -48 93 82 30 130 112 130 219 0 94 -35 150 -118 193 -57 29
-62 30 -232 33 l-173 4 0 -386z m279 223 c17 -6 36 -19 41 -29 12 -22 13 -90
2 -106 -17 -25 -60 -44 -99 -44 l-43 0 0 95 0 95 34 0 c18 0 47 -5 65 -11z"/>
<path d="M2770 2605 l0 -385 220 0 220 0 0 80 0 80 -130 0 -130 0 0 70 0 70
125 0 125 0 0 80 0 80 -125 0 -126 0 3 73 3 72 128 3 127 3 0 79 0 80 -220 0
-220 0 0 -385z"/>
<path d="M4118 2898 c-20 -51 -87 -217 -148 -368 -62 -151 -114 -283 -117
-293 -5 -16 2 -18 92 -15 l98 3 26 73 26 72 142 0 142 0 19 -52 c11 -29 23
-63 26 -75 7 -22 12 -23 106 -23 99 0 99 0 91 23 -5 12 -62 153 -126 312 -65
160 -130 322 -145 360 l-27 70 -84 3 -84 3 -37 -93z m164 -275 l36 -93 -80 0
c-60 0 -79 3 -76 13 50 135 72 187 78 180 4 -4 23 -50 42 -100z"/>
<path d="M340 1945 l0 -225 35 0 35 0 0 225 0 225 -35 0 -35 0 0 -225z"/>
<path d="M430 1945 c0 -218 1 -225 20 -225 19 0 20 7 20 225 0 218 -1 225 -20
225 -19 0 -20 -7 -20 -225z"/>
<path d="M480 1945 c0 -218 1 -225 20 -225 19 0 20 7 20 225 0 218 -1 225 -20
225 -19 0 -20 -7 -20 -225z"/>
<path d="M628 1945 l-3 -225 48 0 47 0 0 225 0 225 -45 0 -44 0 -3 -225z"/>
<path d="M740 1945 c0 -218 1 -225 20 -225 19 0 20 7 20 225 0 218 -1 225 -20
225 -19 0 -20 -7 -20 -225z"/>
<path d="M800 1945 l0 -225 50 0 50 0 0 225 0 225 -50 0 -50 0 0 -225z"/>
<path d="M910 1945 c0 -218 1 -225 20 -225 19 0 20 7 20 225 0 218 -1 225 -20
225 -19 0 -20 -7 -20 -225z"/>
<path d="M970 1945 l0 -225 45 0 45 0 0 225 0 225 -45 0 -45 0 0 -225z"/>
<path d="M1080 1945 c0 -218 1 -225 20 -225 19 0 20 7 20 225 0 218 -1 225
-20 225 -19 0 -20 -7 -20 -225z"/>
<path d="M1220 1945 c0 -218 1 -225 20 -225 19 0 20 7 20 225 0 218 -1 225
-20 225 -19 0 -20 -7 -20 -225z"/>
<path d="M1280 1945 c0 -218 1 -225 20 -225 19 0 20 7 20 225 0 218 -1 225
-20 225 -19 0 -20 -7 -20 -225z"/>
<path d="M1340 1945 c0 -193 2 -225 15 -225 13 0 15 32 15 225 0 193 -2 225
-15 225 -13 0 -15 -32 -15 -225z"/>
<path d="M1390 1945 l0 -225 50 0 50 0 0 225 0 225 -50 0 -50 0 0 -225z"/>
<path d="M1510 1945 l0 -225 45 0 45 0 0 225 0 225 -45 0 -45 0 0 -225z"/>
<path d="M1710 1945 c0 -193 2 -225 15 -225 13 0 15 32 15 225 0 193 -2 225
-15 225 -13 0 -15 -32 -15 -225z"/>
<path d="M1750 1945 c0 -218 1 -225 20 -225 19 0 20 7 20 225 0 218 -1 225
-20 225 -19 0 -20 -7 -20 -225z"/>
<path d="M1900 1945 l0 -225 50 0 50 0 0 225 0 225 -50 0 -50 0 0 -225z"/>
<path d="M2010 1945 c0 -218 1 -225 20 -225 19 0 20 7 20 225 0 218 -1 225
-20 225 -19 0 -20 -7 -20 -225z"/>
<path d="M2070 1945 l0 -225 45 0 45 0 0 225 0 225 -45 0 -45 0 0 -225z"/>
<path d="M2180 1945 c0 -218 1 -225 20 -225 19 0 20 7 20 225 0 218 -1 225
-20 225 -19 0 -20 -7 -20 -225z"/>
<path d="M2240 1945 c0 -218 1 -225 20 -225 19 0 20 7 20 225 0 218 -1 225
-20 225 -19 0 -20 -7 -20 -225z"/>
<path d="M2290 1945 l0 -225 48 0 47 0 0 225 0 225 -47 0 -48 0 0 -225z"/>
<path d="M2410 1945 c0 -218 1 -225 20 -225 19 0 20 7 20 225 0 218 -1 225
-20 225 -19 0 -20 -7 -20 -225z"/>
<path d="M2460 1945 l0 -225 50 0 50 0 0 225 0 225 -50 0 -50 0 0 -225z"/>
<path d="M2670 1945 c0 -193 2 -225 15 -225 13 0 15 32 15 225 0 193 -2 225
-15 225 -13 0 -15 -32 -15 -225z"/>
<path d="M2720 1945 c0 -218 1 -225 20 -225 19 0 20 7 20 225 0 218 -1 225
-20 225 -19 0 -20 -7 -20 -225z"/>
<path d="M2780 1945 c0 -218 1 -225 20 -225 19 0 20 7 20 225 0 218 -1 225
-20 225 -19 0 -20 -7 -20 -225z"/>
<path d="M2840 1945 l0 -225 45 0 45 0 0 225 0 225 -45 0 -45 0 0 -225z"/>
<path d="M2950 1945 l0 -225 50 0 50 0 0 225 0 225 -50 0 -50 0 0 -225z"/>
<path d="M3150 1945 c0 -193 2 -225 15 -225 13 0 15 32 15 225 0 193 -2 225
-15 225 -13 0 -15 -32 -15 -225z"/>
<path d="M3200 1945 l0 -225 45 0 45 0 0 225 0 225 -45 0 -45 0 0 -225z"/>
<path d="M3410 1945 l0 -222 40 0 40 0 0 223 0 223 -40 -1 -40 0 0 -223z"/>
<path d="M3519 2143 c-1 -32 -1 -379 0 -405 1 -10 8 -18 16 -18 13 0 15 32 15
225 0 193 -2 225 -15 225 -10 0 -15 -10 -16 -27z"/>
<path d="M3570 1944 l0 -225 46 3 46 3 -1 195 c0 107 -1 207 -1 223 0 25 -3
27 -45 27 l-45 0 0 -226z"/>
<path d="M3680 1945 c0 -218 1 -225 20 -225 19 0 20 7 20 225 0 218 -1 225
-20 225 -19 0 -20 -7 -20 -225z"/>
<path d="M3740 1945 l0 -225 45 0 45 0 0 225 0 225 -45 0 -45 0 0 -225z"/>
<path d="M3855 1945 l0 -225 48 0 47 0 0 225 0 225 -47 0 -48 0 0 -225z"/>
<path d="M4050 1945 c0 -186 2 -225 14 -225 8 0 16 6 19 14 3 8 5 109 5 225
-1 199 -2 211 -19 211 -18 0 -19 -12 -19 -225z"/>
<path d="M4110 1946 c0 -210 1 -226 18 -226 16 0 17 16 17 222 0 204 -1 223
-17 226 -17 3 -18 -13 -18 -222z"/>
<path d="M4160 1945 c0 -218 1 -225 20 -225 19 0 20 7 20 225 0 218 -1 225
-20 225 -19 0 -20 -7 -20 -225z"/>
<path d="M4210 1945 l0 -225 50 0 50 0 0 225 0 225 -50 0 -50 0 0 -225z"/>
<path d="M4321 1945 l1 -225 49 0 49 0 0 225 0 225 -50 0 -51 0 2 -225z"/>
<path d="M4530 1945 c0 -218 1 -225 20 -225 19 0 20 7 20 225 0 218 -1 225
-20 225 -19 0 -20 -7 -20 -225z"/>
<path d="M4590 1945 c0 -218 1 -225 20 -225 19 0 20 7 20 225 0 218 -1 225
-20 225 -19 0 -20 -7 -20 -225z"/>
</g>
</svg>
